<svg width="28" height="28" viewBox="0 0 28 28" fill="none" xmlns="http://www.w3.org/2000/svg">
<path d="M5.25 22.75C4.76389 22.75 4.35089 22.5797 4.011 22.239C3.67033 21.8991 3.5 21.4861 3.5 21C3.5 20.5139 3.67033 20.1009 4.011 19.761C4.35089 19.4203 4.76389 19.25 5.25 19.25C5.73611 19.25 6.14911 19.4203 6.489 19.761C6.82967 20.1009 7 20.5139 7 21C7 21.4861 6.82967 21.8991 6.489 22.239C6.14911 22.5797 5.73611 22.75 5.25 22.75ZM9.33333 22.1667V19.8333H24.5V22.1667H9.33333ZM5.25 15.75C4.76389 15.75 4.35089 15.5797 4.011 15.239C3.67033 14.8991 3.5 14.4861 3.5 14C3.5 13.5139 3.67033 13.1009 4.011 12.761C4.35089 12.4203 4.76389 12.25 5.25 12.25C5.73611 12.25 6.14911 12.4203 6.489 12.761C6.82967 13.1009 7 13.5139 7 14C7 14.4861 6.82967 14.8991 6.489 15.239C6.14911 15.5797 5.73611 15.75 5.25 15.75ZM9.33333 15.1667V12.8333H24.5V15.1667H9.33333ZM5.25 8.75C4.76389 8.75 4.35089 8.57967 4.011 8.239C3.67033 7.89911 3.5 7.48611 3.5 7C3.5 6.51389 3.67033 6.10089 4.011 5.761C4.35089 5.42033 4.76389 5.25 5.25 5.25C5.73611 5.25 6.14911 5.42033 6.489 5.761C6.82967 6.10089 7 6.51389 7 7C7 7.48611 6.82967 7.89911 6.489 8.239C6.14911 8.57967 5.73611 8.75 5.25 8.75ZM9.33333 8.16667V5.83333H24.5V8.16667H9.33333Z" fill="black"/>
</svg>
