<svg width="28" height="28" viewBox="0 0 28 28" fill="none" xmlns="http://www.w3.org/2000/svg">
<path d="M5.83333 24.5C5.19167 24.5 4.64236 24.2715 4.18542 23.8146C3.72847 23.3576 3.5 22.8083 3.5 22.1667V18.6667C3.5 18.3361 3.61181 18.059 3.83542 17.8354C4.05903 17.6118 4.33611 17.5 4.66667 17.5C4.99722 17.5 5.27431 17.6118 5.49792 17.8354C5.72153 18.059 5.83333 18.3361 5.83333 18.6667V22.1667H9.33333C9.66389 22.1667 9.94097 22.2785 10.1646 22.5021C10.3882 22.7257 10.5 23.0028 10.5 23.3333C10.5 23.6639 10.3882 23.941 10.1646 24.1646C9.94097 24.3882 9.66389 24.5 9.33333 24.5H5.83333ZM22.1667 24.5H18.6667C18.3361 24.5 18.059 24.3882 17.8354 24.1646C17.6118 23.941 17.5 23.6639 17.5 23.3333C17.5 23.0028 17.6118 22.7257 17.8354 22.5021C18.059 22.2785 18.3361 22.1667 18.6667 22.1667H22.1667V18.6667C22.1667 18.3361 22.2785 18.059 22.5021 17.8354C22.7257 17.6118 23.0028 17.5 23.3333 17.5C23.6639 17.5 23.941 17.6118 24.1646 17.8354C24.3882 18.059 24.5 18.3361 24.5 18.6667V22.1667C24.5 22.8083 24.2715 23.3576 23.8146 23.8146C23.3576 24.2715 22.8083 24.5 22.1667 24.5ZM3.5 5.83333C3.5 5.19167 3.72847 4.64236 4.18542 4.18542C4.64236 3.72847 5.19167 3.5 5.83333 3.5H9.33333C9.66389 3.5 9.94097 3.61181 10.1646 3.83542C10.3882 4.05903 10.5 4.33611 10.5 4.66667C10.5 4.99722 10.3882 5.27431 10.1646 5.49792C9.94097 5.72153 9.66389 5.83333 9.33333 5.83333H5.83333V9.33333C5.83333 9.66389 5.72153 9.94097 5.49792 10.1646C5.27431 10.3882 4.99722 10.5 4.66667 10.5C4.33611 10.5 4.05903 10.3882 3.83542 10.1646C3.61181 9.94097 3.5 9.66389 3.5 9.33333V5.83333ZM24.5 5.83333V9.33333C24.5 9.66389 24.3882 9.94097 24.1646 10.1646C23.941 10.3882 23.6639 10.5 23.3333 10.5C23.0028 10.5 22.7257 10.3882 22.5021 10.1646C22.2785 9.94097 22.1667 9.66389 22.1667 9.33333V5.83333H18.6667C18.3361 5.83333 18.059 5.72153 17.8354 5.49792C17.6118 5.27431 17.5 4.99722 17.5 4.66667C17.5 4.33611 17.6118 4.05903 17.8354 3.83542C18.059 3.61181 18.3361 3.5 18.6667 3.5H22.1667C22.8083 3.5 23.3576 3.72847 23.8146 4.18542C24.2715 4.64236 24.5 5.19167 24.5 5.83333ZM14 21C14.4083 21 14.7535 20.859 15.0354 20.5771C15.3174 20.2951 15.4583 19.95 15.4583 19.5417C15.4583 19.1333 15.3174 18.7882 15.0354 18.5063C14.7535 18.2243 14.4083 18.0833 14 18.0833C13.5917 18.0833 13.2465 18.2243 12.9646 18.5063C12.6826 18.7882 12.5417 19.1333 12.5417 19.5417C12.5417 19.95 12.6826 20.2951 12.9646 20.5771C13.2465 20.859 13.5917 21 14 21ZM14 8.98333C14.5056 8.98333 14.9479 9.13889 15.3271 9.45C15.7063 9.76111 15.8958 10.1597 15.8958 10.6458C15.8958 11.0931 15.7549 11.4917 15.4729 11.8417C15.191 12.1917 14.8847 12.5125 14.5542 12.8042C14.0486 13.2514 13.6646 13.6743 13.4021 14.0729C13.1396 14.4715 12.9889 14.9528 12.95 15.5167C12.9306 15.7889 13.0278 16.0271 13.2417 16.2312C13.4556 16.4354 13.7083 16.5375 14 16.5375C14.2722 16.5375 14.5201 16.4403 14.7437 16.2458C14.9674 16.0514 15.0986 15.8083 15.1375 15.5167C15.1764 15.1861 15.2931 14.8944 15.4875 14.6417C15.6819 14.3889 15.9639 14.0778 16.3333 13.7083C17.0139 13.0278 17.466 12.4785 17.6896 12.0604C17.9132 11.6424 18.025 11.1417 18.025 10.5583C18.025 9.50833 17.6458 8.65278 16.8875 7.99167C16.1292 7.33056 15.1667 7 14 7C13.2028 7 12.4882 7.17986 11.8562 7.53958C11.2243 7.89931 10.7431 8.40972 10.4125 9.07083C10.2958 9.30417 10.291 9.54236 10.3979 9.78542C10.5049 10.0285 10.6847 10.1986 10.9375 10.2958C11.1903 10.3931 11.4479 10.3931 11.7104 10.2958C11.9729 10.1986 12.1819 10.0431 12.3375 9.82917C12.5514 9.55694 12.7993 9.34792 13.0813 9.20208C13.3632 9.05625 13.6694 8.98333 14 8.98333Z" fill="black"/>
</svg>
