<svg width="28" height="28" viewBox="0 0 28 28" fill="none" xmlns="http://www.w3.org/2000/svg">
<g clip-path="url(#clip0_2131_8519)">
<path d="M14 7C15.2833 7 16.3333 8.05 16.3333 9.33333C16.3333 10.6167 15.2833 11.6667 14 11.6667C12.7167 11.6667 11.6667 10.6167 11.6667 9.33333C11.6667 8.05 12.7167 7 14 7ZM14 18.6667C17.15 18.6667 20.7667 20.1717 21 21H7.00001C7.26834 20.16 10.8617 18.6667 14 18.6667ZM14 4.66666C11.4217 4.66666 9.33334 6.755 9.33334 9.33333C9.33334 11.9117 11.4217 14 14 14C16.5783 14 18.6667 11.9117 18.6667 9.33333C18.6667 6.755 16.5783 4.66666 14 4.66666ZM14 16.3333C10.885 16.3333 4.66667 17.8967 4.66667 21V23.3333H23.3333V21C23.3333 17.8967 17.115 16.3333 14 16.3333Z" fill="black"/>
</g>
<defs>
<clipPath id="clip0_2131_8519">
<rect width="28" height="28" fill="white"/>
</clipPath>
</defs>
</svg>
