<svg width="28" height="28" viewBox="0 0 28 28" fill="none" xmlns="http://www.w3.org/2000/svg">
<path d="M22.8667 24.4998L15.5167 17.1498C14.9333 17.6164 14.2625 17.9859 13.5042 18.2581C12.7458 18.5303 11.9389 18.6664 11.0833 18.6664C8.96389 18.6664 7.17033 17.9326 5.70267 16.4649C4.23422 14.9965 3.5 13.2025 3.5 11.0831C3.5 8.96364 4.23422 7.1697 5.70267 5.70126C7.17033 4.23359 8.96389 3.49976 11.0833 3.49976C13.2028 3.49976 14.9967 4.23359 16.4652 5.70126C17.9328 7.1697 18.6667 8.96364 18.6667 11.0831C18.6667 11.9386 18.5306 12.7456 18.2583 13.5039C17.9861 14.2623 17.6167 14.9331 17.15 15.5164L24.5 22.8664L22.8667 24.4998ZM11.0833 16.3331C12.5417 16.3331 13.7814 15.8229 14.8027 14.8024C15.8231 13.7812 16.3333 12.5414 16.3333 11.0831C16.3333 9.62476 15.8231 8.38498 14.8027 7.36376C13.7814 6.34331 12.5417 5.83309 11.0833 5.83309C9.625 5.83309 8.38522 6.34331 7.364 7.36376C6.34356 8.38498 5.83333 9.62476 5.83333 11.0831C5.83333 12.5414 6.34356 13.7812 7.364 14.8024C8.38522 15.8229 9.625 16.3331 11.0833 16.3331Z" fill="#565656"/>
</svg>
