<svg width="28" height="28" viewBox="0 0 28 28" fill="none" xmlns="http://www.w3.org/2000/svg">
<path d="M4.6666 24.5002V18.6669C4.6666 18.0252 4.89507 17.4759 5.35201 17.0189C5.80896 16.562 6.35826 16.3335 6.99993 16.3335H20.9999C21.6416 16.3335 22.1909 16.562 22.6478 17.0189C23.1048 17.4759 23.3333 18.0252 23.3333 18.6669V24.5002H4.6666ZM10.4999 15.1669C8.88604 15.1669 7.51035 14.5981 6.37285 13.4606C5.23535 12.3231 4.6666 10.9474 4.6666 9.33353C4.6666 7.71964 5.23535 6.34395 6.37285 5.20645C7.51035 4.06895 8.88604 3.5002 10.4999 3.5002H17.4999C19.1138 3.5002 20.4895 4.06895 21.627 5.20645C22.7645 6.34395 23.3333 7.71964 23.3333 9.33353C23.3333 10.9474 22.7645 12.3231 21.627 13.4606C20.4895 14.5981 19.1138 15.1669 17.4999 15.1669H10.4999ZM6.99993 22.1669H20.9999V18.6669H6.99993V22.1669ZM10.4999 12.8335H17.4999C18.4722 12.8335 19.2985 12.4933 19.9791 11.8127C20.6597 11.1321 20.9999 10.3058 20.9999 9.33353C20.9999 8.36131 20.6597 7.53492 19.9791 6.85437C19.2985 6.17381 18.4722 5.83353 17.4999 5.83353H10.4999C9.52771 5.83353 8.70132 6.17381 8.02076 6.85437C7.34021 7.53492 6.99993 8.36131 6.99993 9.33353C6.99993 10.3058 7.34021 11.1321 8.02076 11.8127C8.70132 12.4933 9.52771 12.8335 10.4999 12.8335ZM10.4999 10.5002C10.8305 10.5002 11.1076 10.3884 11.3312 10.1648C11.5548 9.94117 11.6666 9.66409 11.6666 9.33353C11.6666 9.00298 11.5548 8.72589 11.3312 8.50228C11.1076 8.27867 10.8305 8.16686 10.4999 8.16686C10.1694 8.16686 9.89229 8.27867 9.66868 8.50228C9.44507 8.72589 9.33326 9.00298 9.33326 9.33353C9.33326 9.66409 9.44507 9.94117 9.66868 10.1648C9.89229 10.3884 10.1694 10.5002 10.4999 10.5002ZM17.4999 10.5002C17.8305 10.5002 18.1076 10.3884 18.3312 10.1648C18.5548 9.94117 18.6666 9.66409 18.6666 9.33353C18.6666 9.00298 18.5548 8.72589 18.3312 8.50228C18.1076 8.27867 17.8305 8.16686 17.4999 8.16686C17.1694 8.16686 16.8923 8.27867 16.6687 8.50228C16.4451 8.72589 16.3333 9.00298 16.3333 9.33353C16.3333 9.66409 16.4451 9.94117 16.6687 10.1648C16.8923 10.3884 17.1694 10.5002 17.4999 10.5002Z" fill="black"/>
</svg>
