<svg width="24" height="24" viewBox="0 0 24 24" fill="none" xmlns="http://www.w3.org/2000/svg">
<path d="M7.875 18C6.59167 18 5.61667 17.525 4.95 16.575C4.28333 15.625 3.96667 14.5583 4 13.375L3.55 12.7C3.36667 12.4167 3.06267 11.775 2.638 10.775C2.21267 9.775 2 8.51667 2 7C2 5.28333 2.425 3.854 3.275 2.712C4.125 1.57067 5.2 1 6.5 1C7.91667 1 9.02067 1.629 9.812 2.887C10.604 4.14567 11 5.51667 11 7C11 7.96667 10.8667 8.85833 10.6 9.675C10.3333 10.4917 10.1 11.15 9.9 11.65L10.1 11.975C10.2333 12.2083 10.4167 12.579 10.65 13.087C10.8833 13.5957 11 14.125 11 14.675C11 15.625 10.7043 16.4167 10.113 17.05C9.521 17.6833 8.775 18 7.875 18ZM5.25 11.6L8 11.05C8.21667 10.5167 8.43767 9.90833 8.663 9.225C8.88767 8.54167 9 7.8 9 7C9 6 8.77067 5.08333 8.312 4.25C7.854 3.41667 7.25 3 6.5 3C5.75 3 5.146 3.41667 4.688 4.25C4.22933 5.08333 4 6 4 7C4 8.05 4.146 8.979 4.438 9.787C4.72933 10.5957 5 11.2 5.25 11.6ZM7.875 16C8.19167 16 8.45833 15.8833 8.675 15.65C8.89167 15.4167 9 15.0917 9 14.675C9 14.3917 8.93333 14.1 8.8 13.8C8.66667 13.5 8.53333 13.2333 8.4 13L6 13.5C6 14.1667 6.146 14.75 6.438 15.25C6.72933 15.75 7.20833 16 7.875 16ZM16.125 23C15.225 23 14.479 22.6833 13.887 22.05C13.2957 21.4167 13 20.625 13 19.675C13 19.125 13.1167 18.5957 13.35 18.087C13.5833 17.579 13.7667 17.2083 13.9 16.975L14.1 16.65C13.9 16.15 13.6667 15.4917 13.4 14.675C13.1333 13.8583 13 12.9667 13 12C13 10.5167 13.396 9.14567 14.188 7.887C14.9793 6.629 16.0833 6 17.5 6C18.8 6 19.875 6.57067 20.725 7.712C21.575 8.854 22 10.2833 22 12C22 13.5167 21.7877 14.7707 21.363 15.762C20.9377 16.754 20.6333 17.3917 20.45 17.675L20 18.375C20.0167 19.5583 19.696 20.625 19.038 21.575C18.3793 22.525 17.4083 23 16.125 23ZM18.75 16.6C19 16.2 19.2707 15.6 19.562 14.8C19.854 14 20 13.0667 20 12C20 11 19.7707 10.0833 19.312 9.25C18.854 8.41667 18.25 8 17.5 8C16.75 8 16.146 8.41667 15.688 9.25C15.2293 10.0833 15 11 15 12C15 12.8 15.1127 13.5373 15.338 14.212C15.5627 14.8873 15.7833 15.5 16 16.05L18.75 16.6ZM16.125 21C16.7917 21 17.2707 20.75 17.562 20.25C17.854 19.75 18 19.1667 18 18.5L15.6 18C15.4667 18.2333 15.3333 18.5 15.2 18.8C15.0667 19.1 15 19.3917 15 19.675C15 20.0083 15.104 20.3123 15.312 20.587C15.5207 20.8623 15.7917 21 16.125 21Z" fill="#F2F2F2"/>
</svg>
