<svg width="28" height="28" viewBox="0 0 28 28" fill="none" xmlns="http://www.w3.org/2000/svg">
<g clip-path="url(#clip0_2131_8505)">
<path d="M11.6667 14C14.245 14 16.3333 11.9117 16.3333 9.33332C16.3333 6.75499 14.245 4.66666 11.6667 4.66666C9.08833 4.66666 7 6.75499 7 9.33332C7 11.9117 9.08833 14 11.6667 14ZM11.6667 6.99999C12.95 6.99999 14 8.04999 14 9.33332C14 10.6167 12.95 11.6667 11.6667 11.6667C10.3833 11.6667 9.33333 10.6167 9.33333 9.33332C9.33333 8.04999 10.3833 6.99999 11.6667 6.99999Z" fill="black"/>
<path d="M4.66666 21C4.92333 20.16 8.52833 18.6667 11.6667 18.6667C11.6667 17.85 11.8183 17.0683 12.075 16.345C8.89 16.2283 2.33333 17.815 2.33333 21V23.3333H13.4633C12.8567 22.6567 12.3783 21.875 12.075 21H4.66666Z" fill="black"/>
<path d="M22.6683 21.0233C23.0883 20.335 23.3333 19.53 23.3333 18.6667C23.3333 16.0883 21.245 14 18.6667 14C16.0883 14 14 16.0883 14 18.6667C14 21.245 16.0883 23.3333 18.6667 23.3333C19.53 23.3333 20.335 23.0767 21.0233 22.6683C22.1083 23.7533 22.9133 24.5583 24.0217 25.6667L25.6667 24.0217C23.9167 22.2717 24.745 23.0883 22.6683 21.0233ZM18.6667 21C17.3833 21 16.3333 19.95 16.3333 18.6667C16.3333 17.3833 17.3833 16.3333 18.6667 16.3333C19.95 16.3333 21 17.3833 21 18.6667C21 19.95 19.95 21 18.6667 21Z" fill="black"/>
</g>
<defs>
<clipPath id="clip0_2131_8505">
<rect width="28" height="28" fill="white"/>
</clipPath>
</defs>
</svg>
