<svg width="28" height="28" viewBox="0 0 28 28" fill="none" xmlns="http://www.w3.org/2000/svg">
<circle cx="14" cy="14" r="13.5" fill="white" stroke="#B2E5FF"/>
<path d="M12 15.5998L17.9 9.6998C18.0833 9.51647 18.3167 9.4248 18.6 9.4248C18.8833 9.4248 19.1167 9.51647 19.3 9.6998C19.4833 9.88314 19.575 10.1165 19.575 10.3998C19.575 10.6831 19.4833 10.9165 19.3 11.0998L12.7 17.6998C12.5 17.8998 12.2667 17.9998 12 17.9998C11.7333 17.9998 11.5 17.8998 11.3 17.6998L8.69999 15.0998C8.51665 14.9165 8.42499 14.6831 8.42499 14.3998C8.42499 14.1165 8.51665 13.8831 8.69999 13.6998C8.88332 13.5165 9.11665 13.4248 9.39999 13.4248C9.68332 13.4248 9.91665 13.5165 10.1 13.6998L12 15.5998Z" fill="#B2E5FF"/>
</svg>
