<svg width="109" height="22" viewBox="0 0 109 22" fill="none" xmlns="http://www.w3.org/2000/svg">
<path d="M8.13651 9.61632C7.04249 9.61632 6.00761 9.912 5.20928 10.2372V21H0.4784V5.32896H4.9136V7.19175C6.12589 6.06816 7.98867 5.03328 10.295 5.03328C12.5717 5.03328 13.9318 5.97946 14.6415 7.51699C15.7946 6.27514 17.8348 5.03328 20.3481 5.03328C24.0145 5.03328 25.3155 7.51699 25.3155 10.9469V21H20.5846V12.2183C20.5846 10.6808 19.9933 9.61632 18.1896 9.61632C17.0956 9.61632 16.0312 9.912 15.2328 10.2372C15.2624 10.4738 15.2624 10.7103 15.2624 10.9469V21H10.5315V12.2183C10.5315 10.6808 9.94016 9.61632 8.13651 9.61632ZM36.005 21.2957C31.1855 21.2957 27.5782 17.7771 27.5782 13.1645C27.5782 8.40403 31.1855 5.03328 36.005 5.03328C40.8542 5.03328 44.4615 8.40403 44.4615 13.1645C44.4615 17.7771 40.8542 21.2957 36.005 21.2957ZM36.005 16.8605C38.0452 16.8605 39.7306 15.3821 39.7306 13.1645C39.7306 10.8877 38.0452 9.46848 36.005 9.46848C33.9944 9.46848 32.309 10.8877 32.309 13.1645C32.309 15.3525 33.9944 16.8605 36.005 16.8605ZM46.8228 0.65722L51.5537 0.0658607V21H46.8228V0.65722ZM54.7992 0.65722H63.0782C69.1101 0.65722 73.5749 4.85588 73.5749 10.8582C73.5749 16.8013 69.1101 21 63.0782 21H54.7992V0.65722ZM63.0782 5.3881H59.8258V16.2691H63.0782C66.2125 16.2691 68.5483 14.1994 68.5483 10.8582C68.5483 7.48743 66.2125 5.3881 63.0782 5.3881ZM89.9736 19.6103C88.9091 20.4973 86.4254 21.2957 83.853 21.2957C78.7082 21.2957 75.3374 18.3389 75.3374 13.1645C75.3374 8.28576 78.4125 5.03328 83.1434 5.03328C87.5786 5.03328 90.1214 7.81267 90.1214 12.2774V14.4359H80.1866C80.4527 16.0326 81.6058 16.8605 84.4148 16.8605C86.7211 16.8605 88.7021 16.1213 89.9736 15.5299V19.6103ZM82.8477 8.99539C81.0736 8.99539 80.2753 10.119 80.157 11.4791H85.4792C85.4792 10.119 84.7696 8.99539 82.8477 8.99539ZM97.3192 21L91.3169 5.32896H96.4617L100.217 16.9492L103.883 5.32896H108.969L102.937 21H97.3192Z" fill="black"/>
</svg>
