<svg width="32" height="32" viewBox="0 0 32 32" fill="none" xmlns="http://www.w3.org/2000/svg">
<path d="M6.98145 21V10.3945H8.88574V14.8916H13.8223V10.3945H15.7412V21H13.8223V16.4883H8.88574V21H6.98145ZM17.1516 21V19.623L20.9016 16.0049C21.9709 14.9355 22.5275 14.3057 22.5275 13.4121C22.5275 12.4307 21.7512 11.8008 20.7111 11.8008C19.6125 11.8008 18.9094 12.4893 18.924 13.5586H17.1076C17.093 11.5518 18.6018 10.248 20.7258 10.248C22.8938 10.248 24.3586 11.5371 24.3586 13.3242C24.3586 14.5254 23.7727 15.4922 21.6926 17.4551L19.8029 19.3301V19.4033H24.5197V21H17.1516Z" fill="black"/>
</svg>
