<svg width="28" height="28" viewBox="0 0 28 28" fill="none" xmlns="http://www.w3.org/2000/svg">
<path d="M5 5.24998C5 4.60565 5.52233 4.08331 6.16667 4.08331H21.8333C22.4777 4.08331 23 4.60565 23 5.24998V5.24998C23 5.89431 22.4777 6.41665 21.8333 6.41665H6.16667C5.52233 6.41665 5 5.89431 5 5.24998V5.24998ZM5 22.75C5 22.1056 5.52233 21.5833 6.16667 21.5833H15.8333C16.4777 21.5833 17 22.1056 17 22.75V22.75C17 23.3943 16.4777 23.9166 15.8333 23.9166H6.16667C5.52234 23.9166 5 23.3943 5 22.75V22.75ZM5 16.9166C5 16.2723 5.52233 15.75 6.16667 15.75H21.8333C22.4777 15.75 23 16.2723 23 16.9166V16.9166C23 17.561 22.4777 18.0833 21.8333 18.0833H6.16667C5.52233 18.0833 5 17.561 5 16.9166V16.9166ZM5 11.0833C5 10.439 5.52233 9.91665 6.16667 9.91665H15.8333C16.4777 9.91665 17 10.439 17 11.0833V11.0833C17 11.7276 16.4777 12.25 15.8333 12.25H6.16667C5.52234 12.25 5 11.7276 5 11.0833V11.0833Z" fill="black"/>
</svg>
