<svg width="32" height="32" viewBox="0 0 32 32" fill="none" xmlns="http://www.w3.org/2000/svg">
<path d="M28 15H17.956C17.512 14.8806 17.0659 14.7689 16.618 14.665C13.81 14.001 12.222 13.515 12.222 11.242C12.1992 10.8496 12.2573 10.4567 12.3927 10.0877C12.5281 9.71873 12.7378 9.3815 13.009 9.09698C13.8584 8.39848 14.9223 8.01359 16.022 8.00698C18.852 7.93698 20.157 8.89698 21.224 10.357L22.839 9.17698C22.083 8.09133 21.0524 7.22583 19.8524 6.66888C18.6525 6.11194 17.3261 5.88353 16.009 6.00698C14.391 6.01731 12.8302 6.60652 11.609 7.66798C11.1461 8.13747 10.7844 8.69681 10.546 9.31149C10.3076 9.92618 10.1977 10.5832 10.223 11.242C10.1791 11.9629 10.3146 12.6834 10.6171 13.3392C10.9197 13.9949 11.3801 14.5655 11.957 15H4V17H17.652C19.619 17.57 20.795 18.312 20.825 20.358C20.8575 20.795 20.7975 21.234 20.649 21.6463C20.5005 22.0587 20.2667 22.435 19.963 22.751C18.9048 23.5851 17.5901 24.0265 16.243 24C15.2375 23.9708 14.2518 23.7134 13.3605 23.2472C12.4691 22.781 11.6955 22.1182 11.098 21.309L9.565 22.593C10.3417 23.6281 11.3439 24.4728 12.4956 25.0631C13.6472 25.6534 14.9181 25.9738 16.212 26H16.312C18.1588 26.0212 19.9512 25.3753 21.36 24.181C21.86 23.6769 22.2487 23.0735 22.501 22.4098C22.7534 21.7461 22.8637 21.0369 22.825 20.328C22.8623 19.1152 22.4531 17.931 21.675 17H28V15Z" fill="#212529"/>
</svg>
