<svg width="32" height="32" viewBox="0 0 32 32" fill="none" xmlns="http://www.w3.org/2000/svg">
<path d="M6.98145 21V10.3945H8.88574V14.8916H13.8223V10.3945H15.7412V21H13.8223V16.4883H8.88574V21H6.98145ZM21.0041 21.1465C18.7336 21.1465 17.1223 19.916 17.0783 18.1289H18.9973C19.0559 18.9785 19.9055 19.5352 21.0041 19.5352C22.176 19.5352 23.0109 18.8906 23.0109 17.9531C23.0109 17.001 22.1906 16.3125 20.8137 16.3125H19.8615V14.8477H20.8137C21.9416 14.8477 22.7326 14.2178 22.718 13.2949C22.7326 12.4014 22.0588 11.8008 21.0188 11.8008C20.0227 11.8008 19.1584 12.3574 19.1291 13.251H17.298C17.342 11.4639 18.9533 10.248 21.0334 10.248C23.1867 10.248 24.5783 11.5664 24.5637 13.1924C24.5783 14.3789 23.7873 15.2432 22.6301 15.4775V15.5654C24.1242 15.7705 24.9738 16.7227 24.9592 18.0557C24.9738 19.8428 23.3039 21.1465 21.0041 21.1465Z" fill="black"/>
</svg>
