{
  "accessors": [
    {
      "bufferView": 2,
      "componentType": 5126,
      "count": 2427,
      "max": [
        1.061517596244812,
        1.0,
        1.0615179538726807
      ],
      "min": [
        -1.061517596244812,
        -4.999999046325684,
        -1.0615174770355225
      ],
      "type": "VEC3"
    },
    {
      "bufferView": 2,
      "byteOffset": 29124,
      "componentType": 5126,
      "count": 2427,
      "max": [
        1.0,
        1.0,
        1.0
      ],
      "min": [
        -1.0,
        -0.9976071715354919,
        -1.0
      ],
      "type": "VEC3"
    },
    {
      "bufferView": 1,
      "componentType": 5126,
      "count": 2427,
      "max": [
        1.0,
        1.0
      ],
      "min": [
        0.0,
        0.010173804126679897
      ],
      "type": "VEC2"
    },
    {
      "bufferView": 0,
      "componentType": 5125,
      "count": 9396,
      "type": "SCALAR"
    },
    {
      "bufferView": 2,
      "byteOffset": 58248,
      "componentType": 5126,
      "count": 392,
      "max": [
        0.6053276062011719,
        0.4876146912574768,
        0.6053276062011719
      ],
      "min": [
        -0.6053276062011719,
        0.0,
        -0.6053276062011719
      ],
      "type": "VEC3"
    },
    {
      "bufferView": 2,
      "byteOffset": 62952,
      "componentType": 5126,
      "count": 392,
      "max": [
        1.0,
        1.0,
        1.0
      ],
      "min": [
        -1.0,
        -1.0,
        -1.0
      ],
      "type": "VEC3"
    },
    {
      "bufferView": 1,
      "byteOffset": 19416,
      "componentType": 5126,
      "count": 392,
      "max": [
        0.39527860283851624,
        0.3952786326408386
      ],
      "min": [
        0.10472136735916138,
        0.10472138226032257
      ],
      "type": "VEC2"
    },
    {
      "bufferView": 0,
      "byteOffset": 37584,
      "componentType": 5125,
      "count": 1140,
      "type": "SCALAR"
    },
    {
      "bufferView": 2,
      "byteOffset": 67656,
      "componentType": 5126,
      "count": 7771,
      "max": [
        0.5153803825378418,
        0.5243453979492188,
        0.13010002672672272
      ],
      "min": [
        -0.1353154331445694,
        -0.3391123116016388,
        -0.13010002672672272
      ],
      "type": "VEC3"
    },
    {
      "bufferView": 2,
      "byteOffset": 160908,
      "componentType": 5126,
      "count": 7771,
      "max": [
        1.0,
        1.0,
        1.0
      ],
      "min": [
        -1.0,
        -1.0,
        -1.0
      ],
      "type": "VEC3"
    },
    {
      "bufferView": 1,
      "byteOffset": 22552,
      "componentType": 5126,
      "count": 7771,
      "max": [
        0.38756847381591797,
        0.38756829500198364
      ],
      "min": [
        0.11243152618408203,
        0.11243155598640442
      ],
      "type": "VEC2"
    },
    {
      "bufferView": 0,
      "byteOffset": 42144,
      "componentType": 5125,
      "count": 21810,
      "type": "SCALAR"
    },
    {
      "bufferView": 2,
      "byteOffset": 254160,
      "componentType": 5126,
      "count": 1464,
      "max": [
        1.0391533374786377,
        9.37526798248291,
        1.0391523838043213
      ],
      "min": [
        -1.0391511917114258,
        7.4906463623046875,
        -1.0391521453857422
      ],
      "type": "VEC3"
    },
    {
      "bufferView": 2,
      "byteOffset": 271728,
      "componentType": 5126,
      "count": 1464,
      "max": [
        1.0,
        1.0,
        1.0
      ],
      "min": [
        -1.0,
        -1.0,
        -1.0
      ],
      "type": "VEC3"
    },
    {
      "bufferView": 1,
      "byteOffset": 84720,
      "componentType": 5126,
      "count": 1464,
      "max": [
        0.35496488213539124,
        0.35496479272842407
      ],
      "min": [
        0.14503513276576996,
        0.14503513276576996
      ],
      "type": "VEC2"
    },
    {
      "bufferView": 0,
      "byteOffset": 129384,
      "componentType": 5125,
      "count": 4212,
      "type": "SCALAR"
    },
    {
      "bufferView": 2,
      "byteOffset": 289296,
      "componentType": 5126,
      "count": 4260,
      "max": [
        1.0,
        1.0,
        1.0
      ],
      "min": [
        -1.0,
        -2.4299302101135254,
        -1.0
      ],
      "type": "VEC3"
    },
    {
      "bufferView": 2,
      "byteOffset": 340416,
      "componentType": 5126,
      "count": 4260,
      "max": [
        1.0,
        1.0,
        1.0
      ],
      "min": [
        -1.0,
        -1.0,
        -1.0
      ],
      "type": "VEC3"
    },
    {
      "bufferView": 1,
      "byteOffset": 96432,
      "componentType": 5126,
      "count": 4260,
      "max": [
        1.0,
        1.0
      ],
      "min": [
        0.0,
        0.01000000536441803
      ],
      "type": "VEC2"
    },
    {
      "bufferView": 0,
      "byteOffset": 146232,
      "componentType": 5125,
      "count": 15540,
      "type": "SCALAR"
    },
    {
      "bufferView": 2,
      "byteOffset": 391536,
      "componentType": 5126,
      "count": 387,
      "max": [
        1.0,
        1.0,
        1.0
      ],
      "min": [
        -1.5346362590789795,
        -1.9421257972717285,
        -1.0
      ],
      "type": "VEC3"
    },
    {
      "bufferView": 2,
      "byteOffset": 396180,
      "componentType": 5126,
      "count": 387,
      "max": [
        1.0,
        1.0,
        0.9993547797203064
      ],
      "min": [
        -1.0,
        -1.0,
        -0.9993547797203064
      ],
      "type": "VEC3"
    },
    {
      "bufferView": 1,
      "byteOffset": 130512,
      "componentType": 5126,
      "count": 387,
      "max": [
        1.0,
        1.0
      ],
      "min": [
        0.0,
        0.01000000536441803
      ],
      "type": "VEC2"
    },
    {
      "bufferView": 0,
      "byteOffset": 208392,
      "componentType": 5125,
      "count": 1140,
      "type": "SCALAR"
    },
    {
      "bufferView": 2,
      "byteOffset": 400824,
      "componentType": 5126,
      "count": 304,
      "max": [
        1.0,
        -0.20011627674102783,
        1.0000001192092896
      ],
      "min": [
        -1.0,
        -1.0,
        -1.0
      ],
      "type": "VEC3"
    },
    {
      "bufferView": 2,
      "byteOffset": 404472,
      "componentType": 5126,
      "count": 304,
      "max": [
        1.0,
        0.990446925163269,
        1.0
      ],
      "min": [
        -1.0,
        -1.0,
        -1.0
      ],
      "type": "VEC3"
    },
    {
      "bufferView": 1,
      "byteOffset": 133608,
      "componentType": 5126,
      "count": 304,
      "max": [
        1.0,
        1.0
      ],
      "min": [
        0.0,
        0.01000000536441803
      ],
      "type": "VEC2"
    },
    {
      "bufferView": 0,
      "byteOffset": 212952,
      "componentType": 5125,
      "count": 948,
      "type": "SCALAR"
    },
    {
      "bufferView": 2,
      "byteOffset": 408120,
      "componentType": 5126,
      "count": 431,
      "max": [
        2.1000003814697266,
        1.567035436630249,
        2.1000003814697266
      ],
      "min": [
        -2.1000003814697266,
        -2.436577320098877,
        -2.1000003814697266
      ],
      "type": "VEC3"
    },
    {
      "bufferView": 2,
      "byteOffset": 413292,
      "componentType": 5126,
      "count": 431,
      "max": [
        1.0,
        0.9785771369934082,
        1.0
      ],
      "min": [
        -1.0,
        -1.0,
        -1.0
      ],
      "type": "VEC3"
    },
    {
      "bufferView": 1,
      "byteOffset": 136040,
      "componentType": 5126,
      "count": 431,
      "max": [
        1.0,
        1.0
      ],
      "min": [
        0.0,
        0.01000000536441803
      ],
      "type": "VEC2"
    },
    {
      "bufferView": 0,
      "byteOffset": 216744,
      "componentType": 5125,
      "count": 1524,
      "type": "SCALAR"
    },
    {
      "bufferView": 2,
      "byteOffset": 418464,
      "componentType": 5126,
      "count": 10336,
      "max": [
        0.029999997466802597,
        0.15748926997184753,
        0.12940168380737305
      ],
      "min": [
        -0.03000001236796379,
        -0.21178027987480164,
        -0.02740144357085228
      ],
      "type": "VEC3"
    },
    {
      "bufferView": 2,
      "byteOffset": 542496,
      "componentType": 5126,
      "count": 10336,
      "max": [
        1.0,
        1.0,
        1.0
      ],
      "min": [
        -1.0,
        -1.0,
        -1.0
      ],
      "type": "VEC3"
    },
    {
      "bufferView": 1,
      "byteOffset": 139488,
      "componentType": 5126,
      "count": 10336,
      "max": [
        1.0000191926956177,
        1.0
      ],
      "min": [
        -1.893238368211314e-05,
        0.0
      ],
      "type": "VEC2"
    },
    {
      "bufferView": 0,
      "byteOffset": 222840,
      "componentType": 5125,
      "count": 58008,
      "type": "SCALAR"
    }
  ],
  "asset": {
    "extras": {
      "author": "Wicxes (https://sketchfab.com/Wicxes)",
      "license": "CC-BY-4.0 (http://creativecommons.org/licenses/by/4.0/)",
      "source": "https://sketchfab.com/3d-models/water-gun-23ee185e955a459d8c396e2afa865085",
      "title": "Water gun"
    },
    "generator": "Sketchfab-15.10.0",
    "version": "2.0"
  },
  "bufferViews": [
    {
      "buffer": 0,
      "byteLength": 454872,
      "name": "floatBufferViews",
      "target": 34963
    },
    {
      "buffer": 0,
      "byteLength": 222176,
      "byteOffset": 454872,
      "byteStride": 8,
      "name": "floatBufferViews",
      "target": 34962
    },
    {
      "buffer": 0,
      "byteLength": 666528,
      "byteOffset": 677048,
      "byteStride": 12,
      "name": "floatBufferViews",
      "target": 34962
    }
  ],
  "buffers": [
    {
      "byteLength": 1343576,
      "uri": "scene.bin"
    }
  ],
  "materials": [
    {
      "doubleSided": true,
      "name": "yellow_rough_plastic",
      "pbrMetallicRoughness": {
        "baseColorFactor": [
          1.0,
          0.480087,
          0.0,
          1.0
        ],
        "metallicFactor": 0.0,
        "roughnessFactor": 0.5
      }
    },
    {
      "doubleSided": true,
      "name": "blue_plastic",
      "pbrMetallicRoughness": {
        "baseColorFactor": [
          0.114286,
          0.361324,
          1.0,
          1.0
        ],
        "metallicFactor": 0.0,
        "roughnessFactor": 0.03
      }
    },
    {
      "doubleSided": true,
      "name": "pink_plastic",
      "pbrMetallicRoughness": {
        "baseColorFactor": [
          1.0,
          0.114286,
          0.196824,
          1.0
        ],
        "metallicFactor": 0.0,
        "roughnessFactor": 0.03
      }
    },
    {
      "doubleSided": true,
      "name": "red_plastic",
      "pbrMetallicRoughness": {
        "baseColorFactor": [
          1.0,
          0.0214287,
          0.0214287,
          1.0
        ],
        "metallicFactor": 0.0,
        "roughnessFactor": 0.03
      }
    }
  ],
  "meshes": [
    {
      "name": "Object_0",
      "primitives": [
        {
          "attributes": {
            "NORMAL": 1,
            "POSITION": 0,
            "TEXCOORD_0": 2
          },
          "indices": 3,
          "material": 0,
          "mode": 4
        }
      ]
    },
    {
      "name": "Object_1",
      "primitives": [
        {
          "attributes": {
            "NORMAL": 5,
            "POSITION": 4,
            "TEXCOORD_0": 6
          },
          "indices": 7,
          "material": 1,
          "mode": 4
        }
      ]
    },
    {
      "name": "Object_2",
      "primitives": [
        {
          "attributes": {
            "NORMAL": 9,
            "POSITION": 8,
            "TEXCOORD_0": 10
          },
          "indices": 11,
          "material": 2,
          "mode": 4
        }
      ]
    },
    {
      "name": "Object_3",
      "primitives": [
        {
          "attributes": {
            "NORMAL": 13,
            "POSITION": 12,
            "TEXCOORD_0": 14
          },
          "indices": 15,
          "material": 1,
          "mode": 4
        }
      ]
    },
    {
      "name": "Object_4",
      "primitives": [
        {
          "attributes": {
            "NORMAL": 17,
            "POSITION": 16,
            "TEXCOORD_0": 18
          },
          "indices": 19,
          "material": 2,
          "mode": 4
        }
      ]
    },
    {
      "name": "Object_5",
      "primitives": [
        {
          "attributes": {
            "NORMAL": 21,
            "POSITION": 20,
            "TEXCOORD_0": 22
          },
          "indices": 23,
          "material": 2,
          "mode": 4
        }
      ]
    },
    {
      "name": "Object_6",
      "primitives": [
        {
          "attributes": {
            "NORMAL": 25,
            "POSITION": 24,
            "TEXCOORD_0": 26
          },
          "indices": 27,
          "material": 1,
          "mode": 4
        }
      ]
    },
    {
      "name": "Object_7",
      "primitives": [
        {
          "attributes": {
            "NORMAL": 29,
            "POSITION": 28,
            "TEXCOORD_0": 30
          },
          "indices": 31,
          "material": 3,
          "mode": 4
        }
      ]
    },
    {
      "name": "Object_8",
      "primitives": [
        {
          "attributes": {
            "NORMAL": 33,
            "POSITION": 32,
            "TEXCOORD_0": 34
          },
          "indices": 35,
          "material": 2,
          "mode": 4
        }
      ]
    }
  ],
  "nodes": [
    {
      "children": [
        1
      ],
      "matrix": [
        1.0,
        0.0,
        0.0,
        0.0,
        0.0,
        2.220446049250313e-16,
        -1.0,
        0.0,
        0.0,
        1.0,
        2.220446049250313e-16,
        0.0,
        0.0,
        0.0,
        0.0,
        1.0
      ],
      "name": "Sketchfab_model"
    },
    {
      "children": [
        2
      ],
      "name": "root"
    },
    {
      "children": [
        3,
        5,
        7,
        9,
        11,
        13,
        15,
        17,
        19
      ],
      "matrix": [
        1.0,
        0.0,
        0.0,
        0.0,
        0.0,
        2.220446049250313e-16,
        1.0,
        0.0,
        0.0,
        -1.0,
        2.220446049250313e-16,
        0.0,
        0.0,
        0.0,
        0.0,
        1.0
      ],
      "name": "GLTF_SceneRootNode"
    },
    {
      "children": [
        4
      ],
      "matrix": [
        0.10000002384185791,
        0.0,
        0.0,
        0.0,
        -0.0,
        8.429371489918971e-09,
        -0.10000002384185756,
        0.0,
        0.0,
        0.10000002384185756,
        8.429371489918971e-09,
        0.0,
        0.0,
        0.12999999523162842,
        0.20000000298023224,
        1.0
      ],
      "name": "Cylinder_2"
    },
    {
      "mesh": 0,
      "name": "Object_4"
    },
    {
      "children": [
        6
      ],
      "matrix": [
        0.10000002384185791,
        0.0,
        0.0,
        0.0,
        -0.0,
        8.429371489918971e-09,
        -0.10000002384185756,
        0.0,
        0.0,
        0.10000002384185756,
        8.429371489918971e-09,
        0.0,
        0.0,
        0.1300000101327896,
        0.09999997913837433,
        1.0
      ],
      "name": "Cylinder.001_3"
    },
    {
      "mesh": 1,
      "name": "Object_6"
    },
    {
      "children": [
        8
      ],
      "matrix": [
        1.0,
        0.0,
        0.0,
        0.0,
        -0.0,
        3.37174793862971e-07,
        -0.9999999999999432,
        0.0,
        0.0,
        0.9999999999999432,
        3.37174793862971e-07,
        0.0,
        0.0,
        0.1300000101327896,
        0.0899999812245369,
        1.0
      ],
      "name": "Cylinder.002_4"
    },
    {
      "mesh": 2,
      "name": "Object_8"
    },
    {
      "children": [
        10
      ],
      "matrix": [
        0.07000001519918442,
        0.0,
        0.0,
        0.0,
        -0.0,
        5.900559917335886e-09,
        -0.07000001519918418,
        0.0,
        0.0,
        0.07000001519918418,
        5.900559917335886e-09,
        0.0,
        0.0,
        0.1300000101327896,
        0.0899999812245369,
        1.0
      ],
      "name": "Cylinder.003_5"
    },
    {
      "mesh": 3,
      "name": "Object_10"
    },
    {
      "children": [
        12
      ],
      "matrix": [
        -0.0378575399518013,
        -0.0,
        0.0,
        -0.0,
        0.0,
        -3.191151918651917e-09,
        0.03785753995180117,
        -0.0,
        -0.0,
        -0.03785753995180117,
        -3.191151918651917e-09,
        -0.0,
        0.16547220945358276,
        0.1300000250339508,
        -0.16811002790927887,
        1.0
      ],
      "name": "Cylinder.004_6"
    },
    {
      "mesh": 4,
      "name": "Object_12"
    },
    {
      "children": [
        14
      ],
      "matrix": [
        -0.03909749165177345,
        -0.0,
        0.0,
        -0.0,
        0.0,
        -9.88701640047428e-10,
        0.011729247868061026,
        -0.0,
        -0.0,
        -0.03620592132210719,
        -3.0519308819511834e-09,
        -0.0,
        0.26992881298065186,
        0.1300000101327896,
        0.14165252447128296,
        1.0
      ],
      "name": "Cylinder.005_7"
    },
    {
      "mesh": 5,
      "name": "Object_14"
    },
    {
      "children": [
        16
      ],
      "matrix": [
        0.025290586054325104,
        0.0,
        0.0,
        0.0,
        0.0,
        2.131836942227169e-09,
        -0.025290586054325017,
        0.0,
        0.0,
        0.025290586054325017,
        2.131836942227169e-09,
        0.0,
        0.281019002199173,
        0.1300000250339508,
        0.0983366072177887,
        1.0
      ],
      "name": "Cylinder.006_8"
    },
    {
      "mesh": 6,
      "name": "Object_16"
    },
    {
      "children": [
        18
      ],
      "matrix": [
        0.015198890119791031,
        0.0,
        0.0,
        0.0,
        0.0,
        1.2811706050869013e-09,
        -0.015198890119790979,
        0.0,
        0.0,
        0.015198890119790979,
        1.2811706050869013e-09,
        0.0,
        0.281019002199173,
        0.1300000250339508,
        0.09347781538963318,
        1.0
      ],
      "name": "Cylinder.007_9"
    },
    {
      "mesh": 7,
      "name": "Object_18"
    },
    {
      "children": [
        20
      ],
      "matrix": [
        -0.9999999999999982,
        4.371138853103046e-08,
        4.371138116184187e-08,
        0.0,
        -4.371138853103046e-08,
        -1.6858739604330708e-07,
        -0.9999999999999848,
        0.0,
        -4.371138116184187e-08,
        -0.9999999999999848,
        1.6858739793068622e-07,
        0.0,
        0.15623879432678223,
        0.1810000240802765,
        0.1688728630542755,
        1.0
      ],
      "name": "Cylinder.008_10"
    },
    {
      "mesh": 8,
      "name": "Object_20"
    }
  ],
  "scene": 0,
  "scenes": [
    {
      "name": "Sketchfab_Scene",
      "nodes": [
        0
      ]
    }
  ]
}
