<svg width="28" height="28" viewBox="0 0 28 28" fill="none" xmlns="http://www.w3.org/2000/svg">
<path d="M3.5 5.24998C3.5 4.60565 4.02233 4.08331 4.66667 4.08331H23.3333C23.9777 4.08331 24.5 4.60565 24.5 5.24998V5.24998C24.5 5.89431 23.9777 6.41665 23.3333 6.41665H4.66667C4.02233 6.41665 3.5 5.89431 3.5 5.24998V5.24998ZM8.16667 22.75C8.16667 22.1056 8.689 21.5833 9.33333 21.5833H23.3333C23.9777 21.5833 24.5 22.1056 24.5 22.75V22.75C24.5 23.3943 23.9777 23.9166 23.3333 23.9166H9.33333C8.689 23.9166 8.16667 23.3943 8.16667 22.75V22.75ZM3.5 16.9166C3.5 16.2723 4.02233 15.75 4.66667 15.75H23.3333C23.9777 15.75 24.5 16.2723 24.5 16.9166V16.9166C24.5 17.561 23.9777 18.0833 23.3333 18.0833H4.66667C4.02233 18.0833 3.5 17.561 3.5 16.9166V16.9166ZM8.16667 11.0833C8.16667 10.439 8.689 9.91665 9.33333 9.91665H23.3333C23.9777 9.91665 24.5 10.439 24.5 11.0833V11.0833C24.5 11.7276 23.9777 12.25 23.3333 12.25H9.33333C8.689 12.25 8.16667 11.7276 8.16667 11.0833V11.0833Z" fill="black"/>
</svg>
