<svg width="28" height="28" viewBox="0 0 28 28" fill="none" xmlns="http://www.w3.org/2000/svg">
<path d="M4.66663 5.24998C4.66663 4.60565 5.18896 4.08331 5.83329 4.08331H22.1666C22.811 4.08331 23.3333 4.60565 23.3333 5.24998V5.24998C23.3333 5.89431 22.811 6.41665 22.1666 6.41665H5.83329C5.18896 6.41665 4.66663 5.89431 4.66663 5.24998V5.24998ZM8.16663 22.75C8.16663 22.1056 8.68896 21.5833 9.33329 21.5833H18.6666C19.311 21.5833 19.8333 22.1056 19.8333 22.75V22.75C19.8333 23.3943 19.311 23.9166 18.6666 23.9166H9.33329C8.68896 23.9166 8.16663 23.3943 8.16663 22.75V22.75ZM8.16663 11.0833C8.16663 10.439 8.68896 9.91665 9.33329 9.91665H18.6666C19.311 9.91665 19.8333 10.439 19.8333 11.0833V11.0833C19.8333 11.7276 19.311 12.25 18.6666 12.25H9.33329C8.68896 12.25 8.16663 11.7276 8.16663 11.0833V11.0833ZM4.66663 16.9166C4.66663 16.2723 5.18896 15.75 5.83329 15.75H22.1666C22.811 15.75 23.3333 16.2723 23.3333 16.9166V16.9166C23.3333 17.561 22.811 18.0833 22.1666 18.0833H5.83329C5.18896 18.0833 4.66663 17.561 4.66663 16.9166V16.9166Z" fill="black"/>
</svg>
